<?xml version="1.0" encoding="utf-8"?>
<!-- Generator: Adobe Illustrator 17.0.0, SVG Export Plug-In . SVG Version: 6.00 Build 0)  -->
<!DOCTYPE svg PUBLIC "-//W3C//DTD SVG 1.0//EN" "http://www.w3.org/TR/2001/REC-SVG-20010904/DTD/svg10.dtd">
<svg version="1.0" id="Layer_1" xmlns="http://www.w3.org/2000/svg" xmlns:xlink="http://www.w3.org/1999/xlink" x="0px" y="0px"
	 width="500px" height="148.53px" viewBox="0 0 500 148.53" enable-background="new 0 0 500 148.53" xml:space="preserve">
<rect x="0" y="-0.001" width="500" height="148.533"/>
<rect x="13.353" y="13.351" width="473.295" height="121.827"/>
<path d="M69.342,78.781h-1.672h-1.672h-1.672h-1.672h-1.672h-1.672h-1.672h-1.672v3.813v3.813v3.813v3.813v3.813v3.813v3.813v3.813
	c0,0.469-0.044,0.907-0.126,1.315c0,0-0.203,0.784-0.357,1.13s-0.341,0.663-0.555,0.949c-0.214,0.286-0.456,0.543-0.72,0.77
	c-0.264,0.227-0.55,0.425-0.852,0.594s-0.621,0.309-0.621,0.309c-0.66,0.224-1.001,0.307-1.001,0.307
	c-0.693,0.111-1.045,0.138-1.045,0.138c-0.704,0-1.056-0.028-1.056-0.028c-0.693-0.111-1.034-0.194-1.364-0.306
	c-0.33-0.112-0.649-0.252-0.649-0.252c-0.605-0.338-0.891-0.536-1.155-0.764c-0.264-0.227-0.506-0.484-0.72-0.77
	c-0.214-0.286-0.401-0.603-0.555-0.949c-0.154-0.346-0.275-0.723-0.275-0.723c-0.165-0.815-0.209-1.253-0.209-1.722v-8.813v-8.813
	v-8.813V74.03v-8.813v-8.813V47.59v-8.813c0-0.367,0.038-0.729,0.112-1.084s0.182-0.7,0.182-0.7c0.28-0.665,0.452-0.985,0.452-0.985
	c0.4-0.603,0.628-0.886,0.881-1.146l0.83-0.707c0.299-0.21,0.619-0.392,0.619-0.392c0.676-0.299,1.033-0.416,1.033-0.416
	c0.741-0.159,1.126-0.201,1.522-0.201h2.376h2.376h2.376h2.376h2.376h2.376h2.376h2.376c1.584,0,3.116,0.158,4.585,0.458
	c1.469,0.301,2.875,0.744,4.206,1.316c1.331,0.572,2.586,1.272,3.755,2.086c1.169,0.814,2.25,1.741,3.233,2.768
	c0.983,1.027,1.866,2.152,2.639,3.362c0.773,1.21,1.434,2.504,1.973,3.868c0.539,1.364,0.955,2.797,1.236,4.286
	c0.281,1.488,0.428,3.032,0.428,4.616c0,1.584-0.147,3.129-0.428,4.621c-0.281,1.492-0.698,2.93-1.236,4.299
	c-0.539,1.369-1.201,2.67-1.973,3.886c-0.773,1.217-1.656,2.349-2.639,3.383c-0.983,1.034-2.064,1.969-3.233,2.789
	c-1.169,0.821-2.424,1.527-3.755,2.105c-1.331,0.577-2.737,1.026-4.206,1.329C72.459,78.622,70.926,78.781,69.342,78.781z"/>
<path d="M69.342,44.291h-1.672h-1.672h-1.672h-1.672h-1.672h-1.672h-1.672h-1.672v2.918v2.918v2.918v2.918v2.918V61.8v2.918v2.918
	h1.672h1.672h1.672h1.672h1.672h1.672h1.672h1.672c0.821,0,1.606-0.081,2.35-0.235s1.448-0.381,2.108-0.675
	c0.66-0.293,1.276-0.653,1.844-1.07c0.568-0.418,1.089-0.895,1.558-1.422c0.469-0.528,0.887-1.107,1.25-1.73
	c0.363-0.623,0.671-1.29,0.92-1.994c0.249-0.704,0.44-1.444,0.568-2.214c0.128-0.77,0.194-1.569,0.194-2.39
	c0-0.807-0.066-1.593-0.194-2.352c-0.128-0.759-0.319-1.49-0.568-2.185c-0.249-0.696-0.557-1.356-0.92-1.974
	c-0.363-0.618-0.781-1.192-1.25-1.716c-0.469-0.524-0.99-0.998-1.558-1.414s-1.184-0.774-1.844-1.066
	c-0.66-0.292-1.364-0.519-2.108-0.673S70.164,44.291,69.342,44.291z"/>
<path d="M129.641,78.781l1.672,3.505l1.672,3.505l1.672,3.505l1.672,3.505L138,96.305l1.672,3.505l1.672,3.505l1.672,3.505
	l0.16,0.346l0.13,0.335c0.038,0.11,0.072,0.218,0.072,0.218l0.107,0.42l0.055,0.302c0.015,0.099,0.027,0.196,0.027,0.196
	s0.025,0.284,0.029,0.376l0.006,0.27c0,0.396-0.037,0.779-0.037,0.779c-0.143,0.735-0.248,1.086-0.387,1.419
	c-0.138,0.333-0.309,0.647-0.511,0.939c-0.201,0.292-0.433,0.563-0.694,0.808c-0.26,0.246-0.549,0.467-0.864,0.66
	c-0.315,0.193-0.656,0.359-1.022,0.493c-0.366,0.135-0.756,0.239-1.168,0.309c-0.412,0.07-0.847,0.107-1.301,0.107l-0.702-0.04
	c-0.233-0.027-0.464-0.068-0.693-0.124c0,0-0.453-0.127-0.673-0.214l-0.645-0.312c-0.209-0.121-0.412-0.259-0.412-0.259
	c-0.389-0.314-0.576-0.489-0.752-0.685c-0.177-0.195-0.344-0.41-0.5-0.646c-0.156-0.236-0.301-0.492-0.433-0.771l-1.892-3.989
	l-1.892-3.989l-1.892-3.989l-1.892-3.989l-1.892-3.989l-1.892-3.989l-1.892-3.989l-1.892-3.989h-1.188H115.3h-1.188h-1.188h-1.188
	h-1.188h-1.188h-1.188v3.681v3.681v3.681v3.681v3.681v3.681v3.681v3.681c0,0.469-0.042,0.907-0.121,1.315
	c0,0-0.196,0.784-0.344,1.13c-0.148,0.346-0.329,0.663-0.537,0.949l-0.699,0.77c-0.257,0.227-0.535,0.425-0.831,0.594
	c0,0-0.608,0.309-0.933,0.421c-0.324,0.112-0.661,0.195-1.004,0.251c0,0-0.693,0.083-1.045,0.083c0,0-0.731-0.028-1.089-0.083
	s-0.708-0.139-1.046-0.251c-0.338-0.112-0.664-0.252-0.972-0.421s-0.599-0.367-0.866-0.594l-0.729-0.77
	c-0.217-0.286-0.405-0.603-0.56-0.949c-0.155-0.346-0.276-0.723-0.276-0.723c-0.165-0.815-0.209-1.253-0.209-1.722v-8.813v-8.813
	v-8.813V74.03v-8.813v-8.813V47.59v-8.813c0-0.367,0.042-0.729,0.122-1.084c0.08-0.354,0.196-0.7,0.346-1.033
	c0.149-0.333,0.331-0.652,0.541-0.953c0.21-0.301,0.447-0.584,0.707-0.845c0.26-0.26,0.544-0.498,0.845-0.707
	c0.301-0.21,0.621-0.392,0.953-0.541s0.679-0.266,1.033-0.346c0.354-0.08,0.717-0.122,1.084-0.122h2.39h2.39h2.39h2.39h2.39h2.39
	h2.39h2.39c1.584,0,3.129,0.159,4.621,0.463c1.492,0.304,2.93,0.752,4.299,1.329c1.369,0.577,2.67,1.284,3.887,2.105
	s2.35,1.756,3.383,2.789c1.034,1.034,1.969,2.167,2.789,3.383c0.821,1.217,1.527,2.517,2.105,3.887
	c0.577,1.369,1.026,2.807,1.329,4.299c0.304,1.492,0.463,3.037,0.463,4.621v0.132v0.132v0.132v0.132v0.132v0.132v0.132v0.132
	c0,1.261-0.093,2.498-0.274,3.704c-0.181,1.206-0.45,2.38-0.8,3.514c-0.35,1.135-0.782,2.23-1.289,3.278
	c-0.507,1.048-1.09,2.049-1.743,2.995s-1.375,1.837-2.161,2.665c-0.786,0.828-1.636,1.593-2.543,2.288
	c-0.907,0.695-1.872,1.319-2.889,1.865C131.824,77.933,130.756,78.4,129.641,78.781z"/>
<path d="M133.278,56.023c0-0.821-0.075-1.62-0.219-2.39c-0.144-0.77-0.357-1.51-0.633-2.214c-0.276-0.704-0.615-1.371-1.01-1.994
	s-0.847-1.202-1.349-1.73c-0.502-0.528-1.055-1.005-1.652-1.422c-0.597-0.418-1.238-0.777-1.917-1.071s-1.396-0.521-2.145-0.675
	c-0.749-0.154-1.53-0.235-2.337-0.235h-1.73h-1.73h-1.73h-1.73h-1.73h-1.73h-1.73h-1.73v3.05v3.05v3.05v3.05v3.05v3.05v3.05v3.05
	h1.745h1.745h1.745h1.745h1.745h1.745h1.745h1.745c0.807,0,1.586-0.081,2.332-0.234c0.746-0.154,1.458-0.381,2.132-0.673
	s1.308-0.65,1.898-1.066c0.59-0.416,1.135-0.89,1.63-1.414c0.495-0.524,0.939-1.099,1.328-1.716
	c0.388-0.617,0.721-1.278,0.991-1.973c0.27-0.696,0.479-1.427,0.62-2.185c0.141-0.759,0.214-1.545,0.214-2.352v-0.132v-0.132v-0.132
	v-0.132v-0.132v-0.132v-0.132V56.023z"/>
<path d="M196.86,114.211h-4.458h-4.458h-4.458h-4.458h-4.458h-4.458h-4.458h-4.458c0,0-0.73-0.042-1.084-0.122
	c-0.354-0.08-0.7-0.196-1.033-0.346c-0.333-0.149-0.652-0.331-0.953-0.541c-0.301-0.21-0.585-0.447-0.845-0.707
	c-0.26-0.26-0.498-0.544-0.707-0.845c-0.21-0.301-0.392-0.621-0.541-0.953s-0.266-0.679-0.346-1.033
	c-0.08-0.354-0.122-0.717-0.122-0.717v-9.092v-8.725v-8.725v-8.725v-8.725v-8.725v-8.725v-8.725c0-0.367,0.042-0.729,0.122-1.084
	s0.196-0.7,0.196-0.7c0.299-0.665,0.481-0.985,0.481-0.985c0.419-0.603,0.657-0.886,0.917-1.146l0.845-0.707
	c0.301-0.21,0.621-0.392,0.953-0.541c0.333-0.149,0.679-0.266,0.679-0.266c0.709-0.159,1.072-0.201,1.072-0.201h4.825h4.458h4.458
	h4.458h4.458h4.458h4.458h4.458c0.469,0,0.909,0.044,0.909,0.044c0.821,0.165,1.202,0.286,1.554,0.44c0,0,0.674,0.341,0.968,0.555
	l0.792,0.72c0.235,0.264,0.44,0.55,0.616,0.852s0.323,0.621,0.44,0.951c0.117,0.33,0.205,0.671,0.264,1.017s0.088,0.698,0.088,1.05
	c0,0.337-0.029,0.676-0.088,1.012c-0.059,0.335-0.147,0.667-0.264,0.988c-0.117,0.322-0.264,0.634-0.44,0.931
	c0,0-0.381,0.578-0.616,0.838l-0.792,0.712c-0.293,0.212-0.616,0.398-0.616,0.398c-0.704,0.306-1.085,0.427-1.496,0.509
	c0,0-0.85,0.126-1.32,0.126h-3.754h-3.754h-3.754h-3.754h-3.754h-3.754h-3.754h-3.754v2.83v2.83v2.83v2.83v2.83v2.83v2.83v2.83
	h2.552h2.552h2.552h2.552h2.552h2.552h2.552h2.552c0.469,0,0.909,0.042,1.32,0.121c0.411,0.079,0.792,0.196,0.792,0.196
	c0.704,0.297,1.026,0.478,1.026,0.478c0.587,0.415,0.85,0.65,1.085,0.906l0.616,0.831c0.176,0.296,0.323,0.608,0.323,0.608
	c0.235,0.649,0.323,0.985,0.381,1.328c0.059,0.343,0.088,0.693,0.088,0.693c0,0.704-0.029,1.056-0.029,1.056
	c-0.117,0.693-0.205,1.034-0.323,1.364c0,0-0.264,0.649-0.44,0.951c-0.176,0.302-0.381,0.588-0.381,0.588
	c-0.469,0.528-0.733,0.77-1.026,0.984c0,0-0.616,0.401-0.968,0.555c0,0-0.733,0.275-1.144,0.357s-0.85,0.126-1.32,0.126h-2.552
	h-2.552h-2.552h-2.552h-2.552h-2.552h-2.552h-2.552v3.123v3.123v3.123v3.123v3.123v3.123v3.123v3.123h3.754h3.754h3.754h3.754h3.754
	h3.754h3.754h3.754c0.469,0,0.909,0.044,0.909,0.044c0.821,0.165,1.202,0.286,1.554,0.44c0,0,0.674,0.341,0.968,0.555l0.792,0.72
	c0.235,0.264,0.44,0.55,0.616,0.852c0.176,0.302,0.323,0.621,0.44,0.951c0.117,0.33,0.205,0.671,0.264,1.017
	c0,0,0.088,0.698,0.088,1.05c0,0.337-0.029,0.676-0.088,1.012s-0.147,0.667-0.264,0.988c-0.117,0.322-0.264,0.634-0.44,0.931
	c0,0-0.381,0.578-0.616,0.838s-0.499,0.5-0.792,0.712c-0.293,0.212-0.616,0.398-0.616,0.398c-0.704,0.306-1.085,0.427-1.496,0.509
	C198.18,114.084,197.329,114.211,196.86,114.211z"/>
<path d="M233.931,114.797h-0.132h-0.132h-0.132h-0.132h-0.132h-0.132h-0.132h-0.132c-1.584,0-3.129-0.15-4.621-0.438
	c-1.492-0.288-2.93-0.714-4.299-1.265c-1.369-0.551-2.67-1.227-3.887-2.015c-1.217-0.788-2.35-1.689-3.383-2.69
	s-1.969-2.102-2.789-3.29c-0.821-1.188-1.527-2.463-2.105-3.814s-1.026-2.775-1.329-4.262s-0.463-3.036-0.463-4.634v-4.693v-4.693
	v-4.693v-4.693v-4.693v-4.693v-4.693v-4.693c0-1.584,0.159-3.122,0.463-4.6s0.752-2.898,1.329-4.246s1.284-2.622,2.105-3.811
	c0.821-1.189,1.756-2.293,2.789-3.297c1.034-1.005,2.167-1.91,3.383-2.703c1.217-0.793,2.517-1.474,3.887-2.03
	c1.369-0.555,2.807-0.985,4.299-1.276c1.492-0.291,3.037-0.443,4.621-0.443h0.132h0.132h0.132h0.132h0.132h0.132h0.132h0.132
	c1.422,0,2.845,0.128,4.245,0.375c1.4,0.247,2.778,0.612,4.112,1.086c1.334,0.474,2.623,1.056,3.845,1.738
	c1.222,0.681,2.378,1.461,3.445,2.33c1.067,0.869,2.045,1.827,2.912,2.863c0.867,1.037,1.623,2.153,2.245,3.338
	c0.622,1.185,1.111,2.439,1.445,3.753c0.333,1.314,0.511,2.687,0.511,4.109v0.044v0.044v0.044v0.044v0.044v0.044v0.044v0.044
	c0,0.455-0.031,0.891-0.093,1.306c-0.062,0.415-0.154,0.81-0.277,1.181c-0.123,0.371-0.276,0.719-0.276,0.719
	c-0.366,0.644-0.578,0.94-0.82,1.208c-0.242,0.268-0.513,0.507-0.813,0.715c-0.3,0.208-0.629,0.386-0.987,0.53
	c-0.357,0.144-0.743,0.254-0.743,0.254c-0.828,0.149-1.269,0.187-1.738,0.187c-0.396,0-0.766-0.029-0.766-0.029
	c-0.693-0.114-1.016-0.199-1.016-0.199c-0.601-0.222-0.88-0.359-1.138-0.52l-0.717-0.557c-0.22-0.209-0.422-0.441-0.607-0.694
	c0,0-0.354-0.528-0.508-0.822c-0.154-0.294-0.293-0.608-0.42-0.94c-0.126-0.332-0.24-0.682-0.343-1.049
	c-0.132-0.719-0.315-1.415-0.547-2.084c-0.232-0.669-0.512-1.31-0.837-1.918c-0.325-0.608-0.696-1.182-1.109-1.717
	c-0.413-0.535-0.869-1.031-1.364-1.482s-1.029-0.857-1.6-1.212c-0.571-0.355-1.178-0.66-1.819-0.909
	c-0.641-0.248-1.315-0.44-2.019-0.57c-0.705-0.13-1.44-0.198-2.202-0.198h-0.132h-0.132h-0.132h-0.132h-0.132h-0.132h-0.132h-0.132
	c-0.821,0-1.618,0.073-2.385,0.214c-0.767,0.141-1.503,0.349-2.201,0.62c-0.698,0.27-1.359,0.603-1.976,0.991
	c-0.616,0.388-1.188,0.833-1.709,1.328c-0.521,0.495-0.99,1.04-1.401,1.63c-0.411,0.59-0.764,1.225-1.052,1.898
	c-0.288,0.674-0.51,1.386-0.661,2.132c-0.151,0.746-0.23,1.525-0.23,2.331v4.722v4.722v4.722v4.722v4.722v4.722v4.722v4.722
	c0,0.821,0.081,1.613,0.234,2.37c0.154,0.757,0.381,1.479,0.673,2.161c0.292,0.682,0.65,1.324,1.066,1.919
	c0.416,0.596,0.89,1.146,1.414,1.644s1.099,0.946,1.716,1.336c0.617,0.39,1.278,0.724,1.973,0.995
	c0.696,0.271,1.427,0.48,2.185,0.621c0.759,0.141,1.545,0.214,2.351,0.214h0.132h0.132h0.132h0.132h0.132h0.132h0.132h0.132
	c0.762,0,1.497-0.068,2.202-0.198c0.705-0.13,1.379-0.322,2.019-0.57c0.641-0.248,1.248-0.553,1.819-0.908s1.105-0.761,1.6-1.212
	s0.95-0.947,1.364-1.482c0.413-0.535,0.784-1.109,1.109-1.717c0.325-0.608,0.605-1.249,0.837-1.918
	c0.232-0.669,0.415-1.365,0.547-2.084c0.103-0.367,0.216-0.717,0.343-1.049c0.126-0.332,0.266-0.646,0.266-0.646
	c0.308-0.588,0.477-0.863,0.662-1.116s0.387-0.485,0.607-0.694c0.22-0.209,0.458-0.395,0.458-0.395
	c0.517-0.323,0.796-0.46,1.096-0.571c0,0,0.623-0.196,0.97-0.253c0,0,0.717-0.086,1.113-0.086c0.469,0,0.911,0.038,1.325,0.113
	c0.414,0.074,0.8,0.185,1.157,0.329c0.357,0.144,0.686,0.321,0.987,0.53c0.3,0.208,0.571,0.447,0.813,0.715
	c0.242,0.268,0.455,0.564,0.638,0.886c0.183,0.322,0.336,0.67,0.459,1.041c0.123,0.371,0.215,0.766,0.277,1.181
	c0.062,0.415,0.093,0.852,0.093,0.852v0.499v0.044v0.044v0.044v0.044v0.044v0.044v0.044c0,1.437-0.178,2.819-0.511,4.138
	c-0.333,1.318-0.822,2.573-1.445,3.756c-0.622,1.182-1.378,2.292-2.245,3.321s-1.845,1.977-2.912,2.834
	c-1.067,0.858-2.223,1.626-3.445,2.295c-1.222,0.67-2.512,1.241-3.845,1.704s-2.712,0.82-4.112,1.061
	C236.776,114.673,235.354,114.797,233.931,114.797z"/>
<path d="M273.465,114.797c-0.352,0-0.704-0.028-1.05-0.083s-0.687-0.139-1.017-0.251c-0.33-0.112-0.649-0.252-0.649-0.252
	c-0.605-0.338-0.891-0.536-1.155-0.764l-0.72-0.77c-0.214-0.286-0.401-0.603-0.555-0.949c-0.154-0.346-0.275-0.723-0.275-0.723
	c-0.165-0.815-0.209-1.253-0.209-1.722v-8.901v-8.901V82.58v-8.901v-8.901v-8.901v-8.901v-8.901c0-0.469,0.044-0.909,0.126-1.32
	s0.203-0.792,0.357-1.144c0.154-0.352,0.341-0.675,0.555-0.968s0.456-0.557,0.72-0.792c0.264-0.235,0.55-0.44,0.852-0.616
	c0,0,0.621-0.323,0.951-0.44c0,0,0.671-0.205,1.017-0.264s0.698-0.088,1.05-0.088c0.352,0,0.704,0.029,1.05,0.088
	c0.346,0.059,0.687,0.147,1.017,0.264s0.649,0.264,0.951,0.44c0.302,0.176,0.588,0.381,0.852,0.616
	c0.264,0.235,0.506,0.499,0.72,0.792s0.401,0.616,0.555,0.968c0.154,0.352,0.275,0.733,0.357,1.144s0.126,0.851,0.126,1.32v8.901
	v8.901v8.901v8.901v8.901v8.901v8.901v8.901c0,0.469-0.044,0.907-0.126,1.315c0,0-0.203,0.784-0.357,1.13
	c-0.154,0.346-0.341,0.663-0.555,0.949l-0.72,0.77c-0.264,0.227-0.55,0.425-0.852,0.594c-0.302,0.169-0.621,0.309-0.951,0.421
	c-0.33,0.112-0.671,0.195-1.017,0.251C274.169,114.77,273.817,114.797,273.465,114.797z"/>
<path d="M315.58,114.797h-0.147h-0.147h-0.147h-0.147h-0.147h-0.147h-0.147h-0.147c-1.569,0-3.103-0.15-4.587-0.438
	c-1.484-0.288-2.917-0.714-4.283-1.265c-1.367-0.551-2.667-1.227-3.884-2.015s-2.353-1.689-3.391-2.69s-1.977-2.102-2.802-3.29
	s-1.537-2.463-2.119-3.814s-1.034-2.775-1.341-4.262c-0.307-1.487-0.468-3.036-0.468-4.634v-4.693v-4.693v-4.693v-4.693v-4.693
	v-4.693v-4.693v-4.693c0-1.584,0.161-3.122,0.468-4.6s0.76-2.898,1.343-4.246c0.583-1.347,1.296-2.622,2.124-3.811
	c0.828-1.189,1.77-2.293,2.811-3.297c1.041-1.005,2.181-1.91,3.405-2.703c1.224-0.793,2.531-1.474,3.905-2.03
	s2.817-0.985,4.312-1.276c1.495-0.291,3.042-0.443,4.626-0.443h0.132h0.132h0.132h0.132h0.132h0.132h0.132h0.132
	c1.584,0,3.129,0.152,4.621,0.443s2.93,0.721,4.299,1.276s2.67,1.236,3.887,2.03c1.217,0.793,2.349,1.699,3.383,2.703
	c1.034,1.005,1.969,2.108,2.789,3.297c0.821,1.189,1.527,2.464,2.105,3.811c0.577,1.347,1.026,2.767,1.329,4.246
	s0.463,3.017,0.463,4.6v4.693v4.693v4.693v4.693v4.693v4.693v4.693v4.693c0,1.598-0.159,3.147-0.463,4.634s-0.752,2.912-1.329,4.262
	c-0.577,1.35-1.284,2.625-2.105,3.814c-0.821,1.188-1.756,2.289-2.789,3.29s-2.167,1.902-3.383,2.69
	c-1.217,0.788-2.517,1.464-3.887,2.015s-2.807,0.977-4.299,1.265C318.709,114.647,317.164,114.797,315.58,114.797z"/>
<path d="M327.195,54.849c0-0.821-0.081-1.613-0.234-2.37c-0.154-0.757-0.381-1.479-0.673-2.161s-0.65-1.323-1.066-1.919
	c-0.416-0.596-0.89-1.146-1.414-1.644c-0.524-0.499-1.099-0.946-1.716-1.336c-0.618-0.39-1.278-0.724-1.974-0.995
	c-0.696-0.271-1.427-0.48-2.185-0.621c-0.759-0.141-1.545-0.214-2.352-0.214h-0.147h-0.147h-0.147h-0.147h-0.147h-0.147h-0.147
	h-0.147c-0.807,0-1.593,0.075-2.352,0.219c-0.759,0.144-1.49,0.357-2.185,0.633c-0.696,0.276-1.356,0.615-1.974,1.01
	c-0.618,0.395-1.192,0.847-1.716,1.349c-0.524,0.502-0.998,1.055-1.414,1.652c-0.416,0.597-0.774,1.238-1.066,1.917
	c-0.292,0.679-0.519,1.396-0.673,2.145c-0.154,0.749-0.234,1.53-0.234,2.336v4.693v4.693v4.693v4.693v4.693v4.693v4.693v4.693
	c0,0.821,0.081,1.615,0.234,2.375c0.154,0.76,0.381,1.487,0.673,2.175c0.292,0.687,0.65,1.335,1.066,1.938
	c0.416,0.603,0.89,1.16,1.414,1.666s1.099,0.961,1.716,1.358c0.618,0.397,1.278,0.737,1.974,1.014
	c0.696,0.277,1.427,0.49,2.185,0.635c0.759,0.144,1.545,0.22,2.352,0.22h0.147h0.147h0.147h0.147h0.147h0.147h0.147h0.147
	c0.807,0,1.593-0.075,2.352-0.22c0.759-0.144,1.49-0.358,2.185-0.635c0.696-0.277,1.356-0.617,1.974-1.014
	c0.618-0.397,1.192-0.852,1.716-1.358c0.524-0.506,0.998-1.063,1.414-1.666c0.416-0.603,0.774-1.251,1.066-1.938
	c0.292-0.687,0.519-1.414,0.673-2.175s0.234-1.554,0.234-2.375v-4.693v-4.693v-4.693v-4.693v-4.693v-4.693v-4.693V54.849z"/>
<path d="M374.587,114.797h-0.147h-0.147h-0.147h-0.147h-0.147h-0.147h-0.147h-0.147c-1.569,0-3.103-0.158-4.587-0.458
	s-2.917-0.744-4.283-1.316c-1.367-0.572-2.667-1.272-3.884-2.086s-2.353-1.741-3.391-2.768c-1.038-1.027-1.977-2.152-2.803-3.362
	c-0.826-1.21-1.537-2.504-2.119-3.868c-0.582-1.364-1.034-2.797-1.341-4.286c-0.307-1.488-0.468-3.032-0.468-4.616v-6.746v-6.746
	v-6.746v-6.746V58.31v-6.746v-6.746v-6.746c0-0.469,0.044-0.909,0.126-1.32s0.203-0.792,0.203-0.792
	c0.308-0.704,0.495-1.027,0.495-1.027c0.429-0.587,0.671-0.851,0.935-1.085l0.852-0.616c0.302-0.176,0.621-0.323,0.621-0.323
	c0.66-0.235,1.001-0.323,1.001-0.323c0.693-0.117,1.045-0.147,1.045-0.147c0.704,0,1.056,0.029,1.402,0.088
	c0.346,0.059,0.687,0.147,0.687,0.147c0.66,0.235,0.979,0.381,0.979,0.381c0.605,0.352,0.891,0.557,0.891,0.557
	c0.528,0.469,0.77,0.733,0.984,1.027c0,0,0.401,0.616,0.555,0.968c0,0,0.275,0.733,0.357,1.144c0.082,0.411,0.126,0.851,0.126,1.32
	v6.746v6.746v6.746v6.746v6.746v6.746v6.746v6.746c0,0.777,0.082,1.541,0.239,2.284c0.157,0.743,0.388,1.463,0.686,2.153
	c0.298,0.69,0.662,1.35,1.085,1.969s0.904,1.2,1.436,1.731c0.532,0.532,1.114,1.015,1.738,1.44c0.624,0.425,1.291,0.793,1.992,1.095
	c0.701,0.302,1.437,0.537,2.199,0.696s1.55,0.244,2.357,0.244h0.132h0.132h0.132h0.132h0.132h0.132h0.132h0.132
	c0.777,0,1.542-0.084,2.284-0.244c0.743-0.16,1.464-0.395,2.154-0.696c0.69-0.302,1.35-0.67,1.969-1.095
	c0.62-0.425,1.2-0.909,1.732-1.44c0.532-0.532,1.015-1.112,1.44-1.731s0.794-1.279,1.095-1.969c0.302-0.69,0.537-1.411,0.696-2.153
	c0.16-0.743,0.244-1.507,0.244-2.284v-6.746v-6.746v-6.746v-6.746V58.31v-6.746v-6.746v-6.746c0-0.469,0.044-0.909,0.126-1.32
	s0.203-0.792,0.203-0.792c0.308-0.704,0.495-1.027,0.495-1.027c0.429-0.587,0.671-0.851,0.935-1.085c0,0,0.55-0.44,0.852-0.616
	c0,0,0.621-0.323,0.951-0.44c0,0,0.671-0.205,1.017-0.264s0.698-0.088,1.05-0.088c0,0,0.704,0.029,1.05,0.088
	c0,0,0.687,0.147,1.017,0.264c0,0,0.649,0.264,0.951,0.44l0.852,0.616c0.264,0.235,0.506,0.499,0.72,0.792
	c0,0,0.401,0.616,0.555,0.968c0,0,0.275,0.733,0.357,1.144s0.126,0.851,0.126,1.32v6.746v6.746v6.746v6.746v6.746v6.746v6.746v6.746
	c0,1.584-0.159,3.127-0.463,4.616c-0.304,1.488-0.752,2.922-1.329,4.286c-0.577,1.364-1.284,2.658-2.105,3.868
	c-0.821,1.21-1.756,2.335-2.789,3.362c-1.034,1.027-2.167,1.954-3.383,2.768s-2.517,1.514-3.887,2.086
	c-1.369,0.572-2.807,1.016-4.299,1.316S376.171,114.797,374.587,114.797z"/>
<path d="M430.192,114.797h-0.147h-0.147h-0.147h-0.147h-0.147h-0.147h-0.147h-0.147c-1.54,0-3.052-0.13-4.52-0.386
	c-1.468-0.256-2.89-0.638-4.251-1.141s-2.66-1.128-3.88-1.87s-2.361-1.601-3.406-2.572s-1.993-2.056-2.829-3.248
	c-0.835-1.193-1.557-2.494-2.148-3.899c-0.591-1.405-1.052-2.914-1.365-4.523c-0.313-1.609-0.478-3.317-0.478-5.121
	c0-0.469,0.044-0.909,0.126-1.32c0.082-0.411,0.203-0.792,0.203-0.792c0.308-0.704,0.495-1.027,0.495-1.027
	c0.429-0.587,0.671-0.851,0.935-1.085c0,0,0.55-0.44,0.852-0.616l0.951-0.44c0.33-0.117,0.671-0.205,1.017-0.264
	c0.346-0.059,0.698-0.088,1.05-0.088c0,0,0.704,0.029,1.05,0.088c0.346,0.059,0.687,0.147,1.017,0.264c0,0,0.649,0.264,0.951,0.44
	l0.852,0.616c0.264,0.235,0.506,0.499,0.72,0.792c0,0,0.401,0.616,0.555,0.968c0,0,0.275,0.733,0.357,1.144
	c0.082,0.411,0.126,0.851,0.126,1.32c0,0.939,0.077,1.826,0.225,2.66s0.366,1.615,0.65,2.341c0.283,0.726,0.631,1.397,1.037,2.011
	c0.406,0.614,0.871,1.171,1.388,1.67s1.086,0.938,1.701,1.318c0.615,0.379,1.276,0.698,1.978,0.955s1.442,0.451,2.217,0.581
	c0.775,0.13,1.583,0.196,2.419,0.196h0.147h0.147h0.147h0.147h0.147h0.147h0.147h0.147c0.865,0,1.703-0.059,2.507-0.175
	s1.573-0.29,2.302-0.52c0.729-0.23,1.417-0.517,2.057-0.858c0.64-0.342,1.233-0.739,1.772-1.189
	c0.539-0.451,1.024-0.956,1.448-1.514c0.424-0.558,0.788-1.169,1.084-1.831c0.296-0.663,0.525-1.377,0.679-2.142
	c0.155-0.765,0.235-1.581,0.235-2.446c0-2.053-0.554-3.851-1.522-5.468c-0.969-1.616-2.353-3.051-4.013-4.377
	c-1.661-1.326-3.598-2.544-5.674-3.726c-2.076-1.182-4.29-2.329-6.505-3.513s-4.429-2.406-6.505-3.738s-4.013-2.775-5.674-4.402
	c-1.661-1.627-3.045-3.437-4.013-5.505c-0.969-2.067-1.522-4.392-1.522-7.046v-0.264v-0.264v-0.264v-0.264v-0.264v-0.264v-0.264
	v-0.264c0-1.584,0.181-3.096,0.52-4.53c0.338-1.434,0.834-2.789,1.462-4.06c0.628-1.27,1.388-2.455,2.256-3.548
	c0.868-1.093,1.844-2.094,2.904-2.996c1.06-0.902,2.202-1.705,3.404-2.402c1.202-0.697,2.462-1.288,3.757-1.767
	c1.295-0.478,2.624-0.844,3.964-1.09c1.339-0.246,2.688-0.373,4.023-0.373h0.132h0.132h0.132h0.132h0.132h0.132h0.132h0.132
	c1.408,0,2.81,0.093,4.186,0.28c1.376,0.187,2.726,0.467,4.03,0.841c1.303,0.374,2.56,0.841,3.749,1.402
	c1.189,0.561,2.311,1.215,3.345,1.963c1.034,0.748,1.98,1.589,2.817,2.524c0.837,0.935,1.566,1.963,2.165,3.085
	s1.07,2.337,1.39,3.646c0.32,1.309,0.491,2.711,0.491,4.207v0.088v0.088v0.088v0.088v0.088v0.088v0.088v0.088
	c0,0-0.035,0.775-0.102,1.136c-0.067,0.361-0.167,0.703-0.296,1.025c-0.129,0.322-0.288,0.623-0.475,0.901l-0.638,0.765
	c-0.238,0.231-0.501,0.437-0.787,0.617c0,0-0.593,0.332-0.92,0.456c-0.327,0.124-0.674,0.219-1.038,0.283s-0.745,0.097-1.141,0.097
	c-0.411,0-0.799-0.031-0.799-0.031c-0.734-0.121-1.08-0.212-1.08-0.212c-0.649-0.236-0.952-0.383-0.952-0.383
	c-0.566-0.345-0.828-0.544-1.07-0.768l-0.666-0.744c-0.202-0.272-0.384-0.566-0.548-0.882s-0.307-0.654-0.432-1.012
	c-0.125-0.358-0.231-0.735-0.319-1.131c-0.176-0.792-0.381-1.505-0.618-2.146s-0.505-1.212-0.806-1.718
	c-0.302-0.506-0.637-0.948-1.007-1.333c-0.37-0.385-0.777-0.713-1.22-0.992c-0.444-0.279-0.925-0.508-1.446-0.695
	c-0.521-0.187-1.081-0.332-1.684-0.442c-0.602-0.11-1.246-0.185-1.934-0.233c-0.688-0.048-1.419-0.068-2.196-0.068h-0.132h-0.132
	h-0.132h-0.132h-0.132h-0.132h-0.132h-0.132c-0.645,0-1.301,0.051-1.956,0.152c-0.654,0.101-1.307,0.252-1.945,0.451
	c-0.638,0.199-1.261,0.446-1.857,0.739c-0.596,0.294-1.164,0.634-1.692,1.019c-0.528,0.385-1.016,0.815-1.45,1.288
	c-0.434,0.473-0.816,0.99-1.131,1.548c-0.315,0.558-0.565,1.158-0.735,1.798c-0.171,0.64-0.262,1.32-0.262,2.039v0.293v0.293V53.5
	v0.293v0.293v0.293v0.293v0.293c0,1.408,0.554,2.68,1.522,3.876c0.969,1.196,2.353,2.315,4.013,3.418
	c1.661,1.103,3.598,2.188,5.674,3.316c2.076,1.128,4.29,2.298,6.505,3.571c2.214,1.272,4.429,2.646,6.505,4.181
	s4.013,3.231,5.674,5.147c1.661,1.916,3.045,4.053,4.013,6.47c0.969,2.417,1.522,5.113,1.522,8.148c0,1.657-0.159,3.239-0.464,4.739
	c-0.305,1.5-0.755,2.917-1.336,4.245c-0.581,1.328-1.293,2.567-2.122,3.709c-0.829,1.142-1.775,2.188-2.823,3.13
	c-1.048,0.942-2.2,1.781-3.439,2.509c-1.24,0.728-2.568,1.345-3.97,1.845c-1.402,0.5-2.879,0.881-4.415,1.138
	S431.835,114.797,430.192,114.797z"/>
</svg>
