<?xml version="1.0" encoding="utf-8"?>
<!-- Generator: Adobe Illustrator 17.0.0, SVG Export Plug-In . SVG Version: 6.00 Build 0)  -->
<!DOCTYPE svg PUBLIC "-//W3C//DTD SVG 1.1//EN" "http://www.w3.org/Graphics/SVG/1.1/DTD/svg11.dtd">
<svg version="1.1" id="Layer_1" xmlns="http://www.w3.org/2000/svg" xmlns:xlink="http://www.w3.org/1999/xlink" x="0px" y="0px"
	 width="500px" height="148.53px" viewBox="0 0 500 148.53" enable-background="new 0 0 500 148.53" xml:space="preserve">
<path d="M500,149.247H0V0.715h500V149.247L500,149.247z M13.353,135.894h473.294V14.067H13.353V135.894L13.353,135.894z"/>
<path d="M69.342,79.497h-3.343h-3.343h-3.343h-3.343v7.625v7.625v7.625v7.625l-0.484,2.445l-1.276,1.719l-1.804,1.016l-2.068,0.334
	l-2.068-0.334l-1.804-1.016l-1.276-1.719l-0.484-2.445V92.373V74.746V57.12V39.493l0.434-2.117l1.193-1.798l1.787-1.248l2.216-0.467
	h4.751h4.751h4.751h4.751l8.791,1.774l6.988,4.854l4.612,7.23l1.665,8.901l-1.665,8.919l-4.612,7.27l-6.988,4.894L69.342,79.497
	L69.342,79.497z M69.342,45.007h-3.343h-3.343h-3.343h-3.343v5.836v5.836v5.836v5.836h3.343h3.343h3.343h3.343l4.458-0.909
	l3.402-2.493l2.17-3.725l0.763-4.604l-0.763-4.537l-2.17-3.69l-3.402-2.48L69.342,45.007L69.342,45.007z"/>
<path d="M129.641,79.497l3.344,7.01l3.344,7.01l3.344,7.01l3.344,7.01l0.29,0.682l0.18,0.638l0.092,0.594l0.026,0.55l-0.424,2.198
	l-1.205,1.747l-1.886,1.153l-2.469,0.416l-1.395-0.163l-1.318-0.526l-1.164-0.944l-0.933-1.417l-3.783-7.978l-3.783-7.978
	l-3.783-7.978l-3.783-7.978H115.3h-2.376h-2.376h-2.376v7.362v7.362v7.362v7.362l-0.466,2.445l-1.236,1.719l-1.763,1.016
	l-2.049,0.334l-2.136-0.334l-1.839-1.016l-1.289-1.719l-0.486-2.445V92.373V74.746V57.12V39.493l0.467-2.117l1.248-1.798
	l1.798-1.248l2.117-0.467h4.78h4.78h4.78h4.78l8.92,1.793l7.27,4.894l4.894,7.27l1.793,8.92v0.264v0.264v0.264v0.264l-1.074,7.218
	l-3.032,6.272l-4.704,4.953L129.641,79.497L129.641,79.497z M133.278,56.739l-0.852-4.605l-2.359-3.725l-3.569-2.493l-4.482-0.909
	h-3.461h-3.461h-3.461h-3.461v6.1v6.1v6.1v6.1h3.49h3.49h3.49h3.49l4.464-0.907l3.529-2.48l2.319-3.69l0.834-4.537v-0.264v-0.264
	v-0.264V56.739L133.278,56.739z"/>
<path d="M196.86,114.927h-8.916h-8.916h-8.916h-8.916l-2.117-0.467l-1.798-1.248l-1.248-1.798l-0.467-2.117V91.845v-17.45V56.944
	v-17.45l0.467-2.117l1.248-1.798l1.798-1.248l2.117-0.467h8.916h8.916h8.916h8.916l2.463,0.484l1.759,1.276l1.056,1.804l0.352,2.067
	l-0.352,2l-1.056,1.769l-1.759,1.263l-2.463,0.482h-7.508h-7.508h-7.508h-7.508v5.66v5.66v5.66v5.66h5.103h5.103h5.103h5.103
	l2.463,0.466l1.759,1.235l1.056,1.763l0.352,2.049l-0.352,2.067l-1.056,1.804l-1.759,1.276l-2.463,0.484h-5.103h-5.103h-5.103
	h-5.103v6.247v6.247v6.247v6.247h7.508h7.508h7.508h7.508l2.463,0.484l1.759,1.276l1.056,1.804l0.352,2.068l-0.352,2l-1.056,1.769
	l-1.759,1.263L196.86,114.927L196.86,114.927z"/>
<path d="M233.931,115.513h-0.264h-0.264h-0.264h-0.264l-8.92-1.703l-7.27-4.706l-4.894-7.103l-1.793-8.896V83.72v-9.385V64.95
	v-9.385l1.793-8.846l4.894-7.109l7.27-4.733l8.92-1.719h0.264h0.264h0.264h0.264l8.357,1.461l7.29,4.068l5.156,6.201l1.956,7.862
	v0.088v0.088v0.088v0.088l-0.37,2.488l-1.096,1.927l-1.8,1.245l-2.482,0.442l-2.082-0.339l-1.554-0.966l-1.114-1.516l-0.763-1.989
	l-1.384-4.001l-2.473-3.199l-3.419-2.121l-4.221-0.768h-0.264h-0.264h-0.264h-0.264l-4.586,0.834l-3.684,2.319l-2.453,3.529
	l-0.891,4.464v9.444v9.444v9.444v9.444l0.907,4.532l2.48,3.564l3.69,2.332l4.537,0.836h0.264h0.264h0.264h0.264l4.221-0.768
	l3.419-2.121l2.473-3.199l1.384-4.002l0.763-1.989l1.114-1.516l1.554-0.966l2.082-0.339l2.482,0.442l1.8,1.245l1.096,1.926
	l0.37,2.487v0.088v0.088v0.088v0.088l-1.956,7.893l-5.156,6.156l-7.29,4L233.931,115.513L233.931,115.513z"/>
<path d="M273.465,115.513l-2.068-0.334l-1.804-1.016l-1.276-1.719l-0.484-2.445V92.197V74.394V56.592V38.79l0.484-2.464l1.276-1.76
	l1.804-1.056l2.068-0.352l2.067,0.352l1.803,1.056l1.276,1.76l0.484,2.464v17.802v17.802v17.802v17.802l-0.484,2.445l-1.276,1.719
	l-1.803,1.016L273.465,115.513L273.465,115.513z"/>
<path d="M315.58,115.513h-0.293h-0.293h-0.293h-0.293l-8.87-1.703l-7.275-4.706l-4.922-7.103l-1.809-8.896V83.72v-9.385V64.95
	v-9.385l1.811-8.846l4.935-7.109l7.31-4.733l8.938-1.719h0.264h0.264h0.264h0.264l8.92,1.719l7.27,4.733l4.894,7.109l1.793,8.846
	v9.385v9.385v9.385v9.385l-1.793,8.896l-4.894,7.103l-7.27,4.706L315.58,115.513L315.58,115.513z M327.195,55.565l-0.907-4.531
	l-2.48-3.563l-3.69-2.332l-4.537-0.836h-0.293h-0.293h-0.293h-0.293l-4.537,0.852l-3.69,2.359l-2.48,3.569l-0.907,4.482v9.385v9.385
	v9.385v9.385l0.907,4.55l2.48,3.604l3.69,2.372l4.537,0.854h0.293h0.293h0.293h0.293l4.537-0.854l3.69-2.372l2.48-3.604l0.907-4.55
	V83.72v-9.385V64.95V55.565L327.195,55.565z"/>
<path d="M374.587,115.513h-0.293h-0.293h-0.293h-0.293l-8.87-1.774l-7.275-4.854l-4.922-7.23l-1.809-8.901V79.263V65.772V52.281
	V38.79l0.484-2.464l1.276-1.76l1.804-1.056l2.068-0.352l2.068,0.352l1.803,1.056l1.276,1.76l0.484,2.464v13.491v13.491v13.491
	v13.491l0.926,4.438l2.521,3.701l3.73,2.535l4.555,0.94h0.264h0.264h0.264h0.264l4.438-0.94l3.701-2.535l2.535-3.701l0.94-4.438
	V79.263V65.772V52.281V38.79l0.484-2.464l1.276-1.76l1.804-1.056l2.067-0.352l2.068,0.352l1.804,1.056l1.276,1.76l0.484,2.464
	v13.491v13.491v13.491v13.491l-1.793,8.901l-4.894,7.23l-7.27,4.854L374.587,115.513L374.587,115.513z"/>
<path d="M430.192,115.513h-0.293h-0.293h-0.293h-0.293l-8.771-1.527l-7.286-4.442l-4.977-7.147l-1.842-9.644l0.484-2.464l1.276-1.76
	l1.804-1.056l2.068-0.352l2.068,0.352l1.804,1.056l1.276,1.76l0.484,2.464l0.874,5l2.425,3.681l3.679,2.273l4.636,0.777h0.293h0.293
	h0.293h0.293l4.809-0.695l3.829-2.048l2.532-3.345l0.915-4.588l-5.536-9.845l-12.179-7.239l-12.179-8.14l-5.536-12.551v-0.528
	v-0.528v-0.528v-0.528l1.981-8.59l5.16-6.544l7.162-4.168l7.987-1.463h0.264h0.264h0.264h0.264l8.216,1.122l7.094,3.366l4.982,5.609
	l1.881,7.853v0.176v0.176v0.176v0.176l-0.398,2.161l-1.113,1.666l-1.707,1.072l-2.179,0.379l-2.203-0.361l-1.697-1.032l-1.214-1.626
	l-0.752-2.143l-1.424-3.864l-2.227-2.324l-3.129-1.136l-4.13-0.301h-0.264h-0.264h-0.264h-0.264l-3.901,0.603l-3.549,1.758
	l-2.581,2.836l-0.997,3.836v0.587v0.587v0.587v0.587l5.536,7.294l12.179,6.887l12.179,9.328l5.536,14.618l-1.8,8.984l-4.946,6.839
	l-7.409,4.354L430.192,115.513L430.192,115.513z"/>
</svg>
