<?xml version="1.0" encoding="utf-8"?>
<!-- Generator: Adobe Illustrator 17.0.0, SVG Export Plug-In . SVG Version: 6.00 Build 0)  -->
<!DOCTYPE svg PUBLIC "-//W3C//DTD SVG 1.0//EN" "http://www.w3.org/TR/2001/REC-SVG-20010904/DTD/svg10.dtd">
<svg version="1.0" id="Layer_1" xmlns="http://www.w3.org/2000/svg" xmlns:xlink="http://www.w3.org/1999/xlink" x="0px" y="0px"
	 width="500px" height="148.53px" viewBox="0 0 500 148.53" enable-background="new 0 0 500 148.53" xml:space="preserve">
<polygon points="500,148.247 468.75,148.247 437.5,148.247 406.25,148.247 375,148.247 343.75,148.247 312.5,148.247 
	281.25,148.247 250,148.247 218.75,148.247 187.5,148.247 156.25,148.247 125,148.247 93.75,148.247 62.5,148.247 31.25,148.247 
	0,148.247 0,138.964 0,129.681 0,120.397 0,111.114 0,101.831 0,92.548 0,83.264 0,73.981 0,64.698 0,55.414 0,46.131 0,36.848 
	0,27.565 0,18.281 0,8.998 0,-0.285 31.25,-0.285 62.5,-0.285 93.75,-0.285 125,-0.285 156.25,-0.285 187.5,-0.285 218.75,-0.285 
	250,-0.285 281.25,-0.285 312.5,-0.285 343.75,-0.285 375,-0.285 406.25,-0.285 437.5,-0.285 468.75,-0.285 500,-0.285 500,8.998 
	500,18.281 500,27.565 500,36.848 500,46.131 500,55.414 500,64.698 500,73.981 500,83.264 500,92.548 500,101.831 500,111.114 
	500,120.397 500,129.681 500,138.964 500,148.247 500,148.247 500,148.247 500,148.247 500,148.247 500,148.247 500,148.247 
	500,148.247 500,148.247 500,148.247 500,148.247 500,148.247 500,148.247 500,148.247 500,148.247 500,148.247 "/>
<polygon points="13.353,134.894 42.934,134.894 72.515,134.894 102.095,134.894 131.676,134.894 161.257,134.894 190.838,134.894 
	220.419,134.894 250,134.894 279.581,134.894 309.162,134.894 338.743,134.894 368.324,134.894 397.905,134.894 427.485,134.894 
	457.066,134.894 486.647,134.894 486.647,127.28 486.647,119.666 486.647,112.052 486.647,104.438 486.647,96.824 486.647,89.209 
	486.647,81.595 486.647,73.981 486.647,66.367 486.647,58.753 486.647,51.138 486.647,43.524 486.647,35.91 486.647,28.296 
	486.647,20.682 486.647,13.067 457.066,13.067 427.485,13.067 397.905,13.067 368.324,13.067 338.743,13.067 309.162,13.067 
	279.581,13.067 250,13.067 220.419,13.067 190.838,13.067 161.257,13.067 131.676,13.067 102.095,13.067 72.515,13.067 
	42.934,13.067 13.353,13.067 13.353,20.682 13.353,28.296 13.353,35.91 13.353,43.524 13.353,51.138 13.353,58.753 13.353,66.367 
	13.353,73.981 13.353,81.595 13.353,89.209 13.353,96.824 13.353,104.438 13.353,112.052 13.353,119.666 13.353,127.28 
	13.353,134.894 13.353,134.894 13.353,134.894 13.353,134.894 13.353,134.894 13.353,134.894 13.353,134.894 13.353,134.894 
	13.353,134.894 13.353,134.894 13.353,134.894 13.353,134.894 13.353,134.894 13.353,134.894 13.353,134.894 13.353,134.894 "/>
<polygon points="69.342,78.497 65.999,78.497 62.656,78.497 59.312,78.497 55.969,78.497 55.969,86.123 55.969,93.748 
	55.969,101.374 55.969,108.999 55.485,111.444 54.209,113.164 52.406,114.18 50.338,114.513 48.27,114.18 46.466,113.164 
	45.19,111.444 44.706,108.999 44.706,91.373 44.706,73.746 44.706,56.12 44.706,38.493 45.141,36.376 46.334,34.578 48.121,33.33 
	50.338,32.862 55.089,32.862 59.84,32.862 64.591,32.862 69.342,32.862 78.134,34.637 85.122,39.491 89.734,46.72 91.398,55.621 
	89.734,64.541 85.122,71.81 78.134,76.705 69.342,78.497 "/>
<polygon points="69.342,44.007 65.999,44.007 62.656,44.007 59.312,44.007 55.969,44.007 55.969,49.844 55.969,55.68 55.969,61.516 
	55.969,67.353 59.312,67.353 62.656,67.353 65.999,67.353 69.342,67.353 73.801,66.443 77.203,63.95 79.373,60.226 80.136,55.621 
	79.373,51.085 77.203,47.395 73.801,44.915 69.342,44.007 "/>
<polygon points="129.641,78.497 132.985,85.507 136.328,92.517 139.672,99.526 143.015,106.536 143.305,107.217 143.485,107.855 
	143.576,108.449 143.602,108.999 143.179,111.197 141.974,112.944 140.088,114.097 137.619,114.513 136.224,114.35 134.906,113.824 
	133.742,112.88 132.809,111.463 129.025,103.485 125.242,95.508 121.459,87.53 117.675,79.553 115.3,79.553 112.924,79.553 
	110.549,79.553 108.173,79.553 108.173,86.914 108.173,94.276 108.173,101.638 108.173,108.999 107.707,111.444 106.472,113.164 
	104.708,114.18 102.659,114.513 100.523,114.18 98.685,113.164 97.396,111.444 96.91,108.999 96.91,91.373 96.91,73.746 
	96.91,56.12 96.91,38.493 97.378,36.376 98.626,34.578 100.424,33.33 102.542,32.862 107.322,32.862 112.103,32.862 116.883,32.862 
	121.664,32.862 130.583,34.655 137.853,39.549 142.747,46.819 144.54,55.739 144.54,56.003 144.54,56.267 144.54,56.531 
	144.54,56.795 143.466,64.013 140.434,70.285 135.731,75.238 129.641,78.497 "/>
<polygon points="133.278,55.739 132.426,51.134 130.067,47.409 126.498,44.916 122.016,44.007 118.555,44.007 115.094,44.007 
	111.634,44.007 108.173,44.007 108.173,50.107 108.173,56.208 108.173,62.308 108.173,68.408 111.663,68.408 115.153,68.408 
	118.643,68.408 122.133,68.408 126.597,67.501 130.125,65.021 132.444,61.331 133.278,56.795 133.278,56.531 133.278,56.267 
	133.278,56.003 133.278,55.739 "/>
<polygon points="196.86,113.927 187.944,113.927 179.028,113.927 170.112,113.927 161.196,113.927 159.079,113.459 157.281,112.211 
	156.033,110.412 155.565,108.295 155.565,90.845 155.565,73.394 155.565,55.944 155.565,38.493 156.033,36.376 157.281,34.578 
	159.079,33.33 161.196,32.862 170.112,32.862 179.028,32.862 187.944,32.862 196.86,32.862 199.324,33.346 201.083,34.622 
	202.139,36.426 202.491,38.493 202.139,40.493 201.083,42.262 199.324,43.525 196.86,44.007 189.352,44.007 181.844,44.007 
	174.336,44.007 166.828,44.007 166.828,49.668 166.828,55.328 166.828,60.988 166.828,66.649 171.931,66.649 177.034,66.649 
	182.137,66.649 187.241,66.649 189.704,67.114 191.463,68.35 192.519,70.113 192.871,72.162 192.519,74.23 191.463,76.034 
	189.704,77.309 187.241,77.793 182.137,77.793 177.034,77.793 171.931,77.793 166.828,77.793 166.828,84.04 166.828,90.287 
	166.828,96.534 166.828,102.781 174.336,102.781 181.844,102.781 189.352,102.781 196.86,102.781 199.324,103.265 201.083,104.541 
	202.139,106.345 202.491,108.413 202.139,110.412 201.083,112.181 199.324,113.444 196.86,113.927 "/>
<polygon points="233.931,114.513 233.667,114.513 233.403,114.513 233.139,114.513 232.875,114.513 223.956,112.81 216.686,108.105 
	211.792,101.001 209.999,92.105 209.999,82.72 209.999,73.335 209.999,63.95 209.999,54.565 211.792,45.719 216.686,38.611 
	223.956,33.878 232.875,32.158 233.139,32.158 233.403,32.158 233.667,32.158 233.931,32.158 242.288,33.619 249.578,37.687 
	254.735,43.888 256.691,51.75 256.691,51.838 256.691,51.926 256.691,52.014 256.691,52.102 256.32,54.589 255.224,56.516 
	253.424,57.761 250.942,58.202 248.859,57.863 247.305,56.897 246.191,55.381 245.428,53.392 244.044,49.391 241.571,46.192 
	238.153,44.071 233.931,43.303 233.667,43.303 233.403,43.303 233.139,43.303 232.875,43.303 228.289,44.137 224.605,46.456 
	222.152,49.985 221.261,54.448 221.261,63.892 221.261,73.336 221.261,82.779 221.261,92.223 222.169,96.754 224.649,100.318 
	228.339,102.65 232.875,103.485 233.139,103.485 233.403,103.485 233.667,103.485 233.931,103.485 238.153,102.717 241.571,100.597 
	244.044,97.398 245.428,93.396 246.191,91.407 247.305,89.891 248.859,88.926 250.942,88.586 253.424,89.028 255.224,90.273 
	256.32,92.199 256.691,94.686 256.691,94.774 256.691,94.862 256.691,94.95 256.691,95.038 254.735,102.932 249.578,109.087 
	242.288,113.087 233.931,114.513 "/>
<polygon points="273.465,114.513 271.398,114.18 269.594,113.164 268.318,111.444 267.834,108.999 267.834,91.197 267.834,73.394 
	267.834,55.592 267.834,37.79 268.318,35.326 269.594,33.566 271.398,32.51 273.465,32.158 275.533,32.51 277.336,33.566 
	278.612,35.326 279.096,37.79 279.096,55.592 279.096,73.394 279.096,91.197 279.096,108.999 278.612,111.444 277.336,113.164 
	275.533,114.18 273.465,114.513 "/>
<polygon points="315.58,114.513 315.287,114.513 314.994,114.513 314.701,114.513 314.407,114.513 305.537,112.81 298.262,108.105 
	293.34,101.001 291.531,92.105 291.531,82.72 291.531,73.335 291.531,63.95 291.531,54.565 293.342,45.719 298.277,38.611 
	305.587,33.878 314.525,32.158 314.789,32.158 315.052,32.158 315.316,32.158 315.58,32.158 324.5,33.878 331.77,38.611 
	336.664,45.719 338.457,54.565 338.457,63.95 338.457,73.335 338.457,82.72 338.457,92.105 336.664,101.001 331.77,108.105 
	324.5,112.81 315.58,114.513 "/>
<polygon points="327.195,54.565 326.287,50.034 323.807,46.471 320.117,44.139 315.58,43.303 315.287,43.303 314.994,43.303 
	314.701,43.303 314.407,43.303 309.87,44.155 306.18,46.515 303.7,50.084 302.793,54.565 302.793,63.95 302.793,73.335 
	302.793,82.72 302.793,92.105 303.7,96.655 306.18,100.259 309.87,102.631 314.407,103.485 314.701,103.485 314.994,103.485 
	315.287,103.485 315.58,103.485 320.117,102.631 323.807,100.259 326.287,96.655 327.195,92.105 327.195,82.72 327.195,73.335 
	327.195,63.95 327.195,54.565 "/>
<polygon points="374.587,114.513 374.294,114.513 374.001,114.513 373.708,114.513 373.414,114.513 364.544,112.739 
	357.269,107.885 352.347,100.655 350.538,91.754 350.538,78.263 350.538,64.772 350.538,51.281 350.538,37.79 351.022,35.326 
	352.298,33.566 354.102,32.51 356.169,32.158 358.237,32.51 360.04,33.566 361.316,35.326 361.8,37.79 361.8,51.281 361.8,64.772 
	361.8,78.263 361.8,91.754 362.725,96.192 365.246,99.893 368.976,102.428 373.532,103.368 373.796,103.368 374.059,103.368 
	374.323,103.368 374.587,103.368 379.025,102.428 382.726,99.893 385.261,96.192 386.202,91.754 386.202,78.263 386.202,64.772 
	386.202,51.281 386.202,37.79 386.686,35.326 387.961,33.566 389.765,32.51 391.832,32.158 393.9,32.51 395.704,33.566 
	396.98,35.326 397.464,37.79 397.464,51.281 397.464,64.772 397.464,78.263 397.464,91.754 395.671,100.655 390.777,107.885 
	383.507,112.739 374.587,114.513 "/>
<polygon points="430.192,114.513 429.899,114.513 429.606,114.513 429.313,114.513 429.02,114.513 420.249,112.986 412.962,108.545 
	407.986,101.398 406.143,91.754 406.627,89.29 407.903,87.531 409.707,86.475 411.775,86.123 413.842,86.475 415.646,87.531 
	416.922,89.29 417.406,91.754 418.28,96.755 420.705,100.435 424.384,102.708 429.02,103.485 429.313,103.485 429.606,103.485 
	429.899,103.485 430.192,103.485 435.001,102.791 438.83,100.743 441.362,97.398 442.277,92.81 436.741,82.964 424.562,75.726 
	412.383,67.585 406.847,55.035 406.847,54.507 406.847,53.979 406.847,53.451 406.847,52.923 408.829,44.333 413.989,37.789 
	421.15,33.621 429.137,32.158 429.401,32.158 429.665,32.158 429.929,32.158 430.192,32.158 438.408,33.28 445.503,36.646 
	450.485,42.255 452.366,50.107 452.366,50.283 452.366,50.459 452.366,50.635 452.366,50.811 451.968,52.972 450.855,54.639 
	449.148,55.711 446.969,56.09 444.766,55.729 443.068,54.697 441.855,53.071 441.103,50.928 439.679,47.064 437.452,44.74 
	434.323,43.604 430.192,43.303 429.929,43.303 429.665,43.303 429.401,43.303 429.137,43.303 425.236,43.906 421.687,45.664 
	419.106,48.5 418.109,52.336 418.109,52.923 418.109,53.509 418.109,54.096 418.109,54.683 423.645,61.976 435.824,68.863 
	448.003,78.191 453.538,92.81 451.738,101.793 446.793,108.633 439.383,112.986 430.192,114.513 "/>
</svg>
