<?xml version="1.0" encoding="utf-8"?>
<!-- Generator: Adobe Illustrator 17.0.0, SVG Export Plug-In . SVG Version: 6.00 Build 0)  -->
<!DOCTYPE svg PUBLIC "-//W3C//DTD SVG 1.0//EN" "http://www.w3.org/TR/2001/REC-SVG-20010904/DTD/svg10.dtd">
<svg version="1.0" id="Layer_1" xmlns="http://www.w3.org/2000/svg" xmlns:xlink="http://www.w3.org/1999/xlink" x="0px" y="0px"
	 width="35px" height="10.4px" viewBox="0 0 35 10.4" enable-background="new 0 0 35 10.4" xml:space="preserve">
<path fill="#FFFFFF" d="M35,10.399H0V0.001h35V10.399z M0.935,9.464h33.131V0.936H0.935V9.464z"/>
<path fill="#FFFFFF" d="M4.854,5.516H3.918v2.135c0,0.263-0.197,0.386-0.394,0.386S3.129,7.914,3.129,7.651V2.716
	c0-0.205,0.172-0.394,0.394-0.394h1.33c0.887,0,1.544,0.706,1.544,1.593C6.398,4.802,5.741,5.516,4.854,5.516z M4.854,3.102H3.918
	v1.634h0.936c0.46,0,0.756-0.361,0.756-0.821C5.609,3.463,5.314,3.102,4.854,3.102z"/>
<path fill="#FFFFFF" d="M9.075,5.516l0.936,1.963c0.033,0.066,0.041,0.123,0.041,0.172c0,0.222-0.164,0.386-0.419,0.386
	c-0.131,0-0.263-0.058-0.337-0.214L8.237,5.59H7.572v2.061c0,0.263-0.189,0.386-0.386,0.386c-0.205,0-0.402-0.123-0.402-0.386V2.716
	c0-0.205,0.189-0.394,0.394-0.394h1.339c0.887,0,1.601,0.714,1.601,1.601v0.074C10.118,4.703,9.699,5.303,9.075,5.516z M9.329,3.923
	c0-0.46-0.337-0.821-0.788-0.821H7.572V4.81h0.977c0.452,0,0.78-0.361,0.78-0.813V3.923z"/>
<path fill="#FFFFFF" d="M13.78,7.996h-2.496c-0.205,0-0.394-0.189-0.394-0.394V2.716c0-0.205,0.189-0.394,0.394-0.394h2.496
	c0.263,0,0.394,0.197,0.394,0.394c0,0.189-0.131,0.386-0.394,0.386h-2.102v1.585h1.429c0.263,0,0.394,0.189,0.394,0.386
	s-0.131,0.394-0.394,0.394h-1.429v1.749h2.102c0.263,0,0.394,0.197,0.394,0.394C14.174,7.799,14.043,7.996,13.78,7.996z"/>
<path fill="#FFFFFF" d="M16.375,8.037h-0.074c-0.887,0-1.601-0.673-1.601-1.569V3.841c0-0.887,0.714-1.568,1.601-1.568h0.074
	c0.797,0,1.593,0.575,1.593,1.371v0.025c0,0.255-0.14,0.427-0.402,0.427c-0.222,0-0.328-0.131-0.386-0.337
	c-0.074-0.402-0.378-0.706-0.805-0.706h-0.074c-0.46,0-0.813,0.329-0.813,0.78v2.644c0,0.46,0.361,0.788,0.813,0.788h0.074
	c0.427,0,0.731-0.304,0.805-0.706c0.058-0.205,0.164-0.337,0.386-0.337c0.263,0,0.402,0.172,0.402,0.427v0.025
	C17.968,7.479,17.172,8.037,16.375,8.037z"/>
<path fill="#FFFFFF" d="M19.143,8.037c-0.197,0-0.394-0.123-0.394-0.386V2.667c0-0.263,0.197-0.394,0.394-0.394
	c0.197,0,0.394,0.131,0.394,0.394v4.985C19.537,7.914,19.34,8.037,19.143,8.037z"/>
<path fill="#FFFFFF" d="M22.091,8.037h-0.082c-0.879,0-1.601-0.673-1.601-1.569V3.841c0-0.887,0.723-1.568,1.61-1.568h0.074
	c0.887,0,1.601,0.682,1.601,1.568v2.628C23.692,7.364,22.978,8.037,22.091,8.037z M22.904,3.841c0-0.46-0.361-0.788-0.813-0.788
	h-0.082c-0.452,0-0.813,0.337-0.813,0.788v2.628c0,0.46,0.361,0.797,0.813,0.797h0.082c0.452,0,0.813-0.337,0.813-0.797V3.841z"/>
<path fill="#FFFFFF" d="M26.221,8.037h-0.082c-0.879,0-1.601-0.706-1.601-1.593V2.667c0-0.263,0.197-0.394,0.394-0.394
	s0.394,0.131,0.394,0.394v3.778c0,0.435,0.37,0.813,0.821,0.813h0.074c0.435,0,0.813-0.378,0.813-0.813V2.667
	c0-0.263,0.197-0.394,0.394-0.394c0.197,0,0.394,0.131,0.394,0.394v3.778C27.822,7.331,27.108,8.037,26.221,8.037z"/>
<path fill="#FFFFFF" d="M30.113,8.037h-0.082c-0.862,0-1.601-0.583-1.601-1.593c0-0.263,0.197-0.394,0.394-0.394
	c0.197,0,0.394,0.131,0.394,0.394c0,0.526,0.345,0.821,0.813,0.821h0.082c0.485,0,0.846-0.263,0.846-0.747
	c0-1.15-2.48-1.158-2.48-2.644V3.726c0-0.887,0.813-1.454,1.56-1.454h0.074c0.788,0,1.552,0.419,1.552,1.256v0.049
	c0,0.222-0.156,0.37-0.378,0.37c-0.23,0-0.361-0.14-0.411-0.361c-0.099-0.443-0.328-0.534-0.764-0.534H30.04
	c-0.361,0-0.772,0.23-0.772,0.632v0.164c0,0.788,2.48,0.969,2.48,2.669C31.748,7.446,31.033,8.037,30.113,8.037z"/>
</svg>
