<?xml version="1.0" encoding="utf-8"?>
<!-- Generator: Adobe Illustrator 17.0.0, SVG Export Plug-In . SVG Version: 6.00 Build 0)  -->
<!DOCTYPE svg PUBLIC "-//W3C//DTD SVG 1.0//EN" "http://www.w3.org/TR/2001/REC-SVG-20010904/DTD/svg10.dtd">
<svg version="1.0" id="Layer_1" xmlns="http://www.w3.org/2000/svg" xmlns:xlink="http://www.w3.org/1999/xlink" x="0px" y="0px"
	 width="100px" height="29.71px" viewBox="0 0 100 29.71" enable-background="new 0 0 100 29.71" xml:space="preserve">
<path fill="#FFFFFF" d="M100,29.708H0V0.002h100V29.708z M2.671,27.038h94.659V2.672H2.671V27.038z"/>
<path fill="#FFFFFF" d="M13.868,15.758h-2.675v6.1c0,0.751-0.563,1.103-1.126,1.103s-1.126-0.352-1.126-1.103V7.757
	c0-0.587,0.493-1.126,1.126-1.126h3.801c2.534,0,4.411,2.018,4.411,4.552C18.28,13.717,16.402,15.758,13.868,15.758z M13.868,8.86
	h-2.675v4.669h2.675c1.314,0,2.159-1.032,2.159-2.346C16.027,9.893,15.183,8.86,13.868,8.86z"/>
<path fill="#FFFFFF" d="M25.928,15.758l2.675,5.608c0.094,0.188,0.117,0.352,0.117,0.493c0,0.633-0.469,1.103-1.197,1.103
	c-0.375,0-0.751-0.164-0.962-0.61l-3.027-6.382h-1.9v5.889c0,0.751-0.54,1.103-1.103,1.103c-0.587,0-1.15-0.352-1.15-1.103V7.757
	c0-0.587,0.54-1.126,1.126-1.126h3.824c2.534,0,4.575,2.041,4.575,4.575v0.211C28.908,13.436,27.712,15.148,25.928,15.758z
	 M26.656,11.207c0-1.314-0.962-2.346-2.253-2.346h-2.769v4.88h2.792c1.291,0,2.229-1.032,2.229-2.323V11.207z"/>
<path fill="#FFFFFF" d="M39.372,22.844h-7.133c-0.587,0-1.126-0.54-1.126-1.126V7.757c0-0.587,0.54-1.126,1.126-1.126h7.133
	c0.751,0,1.126,0.563,1.126,1.126c0,0.54-0.375,1.103-1.126,1.103h-6.007v4.528h4.083c0.751,0,1.126,0.54,1.126,1.103
	c0,0.563-0.375,1.126-1.126,1.126h-4.083v4.998h6.007c0.751,0,1.126,0.563,1.126,1.126C40.498,22.281,40.123,22.844,39.372,22.844z"
	/>
<path fill="#FFFFFF" d="M46.786,22.961h-0.211c-2.534,0-4.575-1.924-4.575-4.482v-7.508c0-2.534,2.041-4.481,4.575-4.481h0.211
	c2.276,0,4.552,1.642,4.552,3.918v0.07c0,0.727-0.399,1.22-1.15,1.22c-0.634,0-0.938-0.375-1.103-0.962
	c-0.211-1.15-1.079-2.018-2.299-2.018h-0.211c-1.314,0-2.323,0.939-2.323,2.229v7.555c0,1.314,1.032,2.253,2.323,2.253h0.211
	c1.22,0,2.088-0.868,2.299-2.018c0.164-0.587,0.469-0.962,1.103-0.962c0.751,0,1.15,0.493,1.15,1.22v0.07
	C51.338,21.366,49.062,22.961,46.786,22.961z"/>
<path fill="#FFFFFF" d="M54.693,22.961c-0.563,0-1.126-0.352-1.126-1.103V7.617c0-0.751,0.563-1.126,1.126-1.126
	c0.563,0,1.126,0.375,1.126,1.126v14.242C55.819,22.609,55.256,22.961,54.693,22.961z"/>
<path fill="#FFFFFF" d="M63.116,22.961h-0.235c-2.511,0-4.575-1.924-4.575-4.482v-7.508c0-2.534,2.065-4.481,4.599-4.481h0.211
	c2.534,0,4.575,1.947,4.575,4.481v7.508C67.691,21.037,65.65,22.961,63.116,22.961z M65.439,10.972c0-1.314-1.032-2.252-2.323-2.252
	h-0.235c-1.291,0-2.323,0.962-2.323,2.252v7.508c0,1.314,1.032,2.276,2.323,2.276h0.235c1.291,0,2.323-0.962,2.323-2.276V10.972z"/>
<path fill="#FFFFFF" d="M74.917,22.961h-0.235c-2.511,0-4.575-2.018-4.575-4.552V7.617c0-0.751,0.563-1.126,1.126-1.126
	c0.563,0,1.126,0.375,1.126,1.126V18.41c0,1.243,1.056,2.323,2.346,2.323h0.211c1.244,0,2.323-1.079,2.323-2.323V7.617
	c0-0.751,0.563-1.126,1.126-1.126c0.563,0,1.126,0.375,1.126,1.126V18.41C79.493,20.944,77.451,22.961,74.917,22.961z"/>
<path fill="#FFFFFF" d="M86.038,22.961h-0.235c-2.464,0-4.575-1.666-4.575-4.552c0-0.751,0.563-1.126,1.126-1.126
	s1.126,0.375,1.126,1.126c0,1.502,0.985,2.346,2.323,2.346h0.235c1.384,0,2.417-0.751,2.417-2.135c0-3.285-7.086-3.308-7.086-7.555
	v-0.422c0-2.534,2.323-4.153,4.458-4.153h0.211c2.253,0,4.435,1.197,4.435,3.59v0.141c0,0.634-0.446,1.056-1.079,1.056
	c-0.657,0-1.032-0.399-1.173-1.032c-0.281-1.267-0.938-1.525-2.182-1.525h-0.211c-1.032,0-2.206,0.657-2.206,1.807v0.469
	c0,2.252,7.086,2.769,7.086,7.625C90.708,21.272,88.666,22.961,86.038,22.961z"/>
</svg>
