<?xml version="1.0" encoding="utf-8"?>
<!-- Generator: Adobe Illustrator 17.0.0, SVG Export Plug-In . SVG Version: 6.00 Build 0)  -->
<!DOCTYPE svg PUBLIC "-//W3C//DTD SVG 1.0//EN" "http://www.w3.org/TR/2001/REC-SVG-20010904/DTD/svg10.dtd">
<svg version="1.0" id="Layer_1" xmlns="http://www.w3.org/2000/svg" xmlns:xlink="http://www.w3.org/1999/xlink" x="0px" y="0px"
	 width="60px" height="17.82px" viewBox="0 0 60 17.82" enable-background="new 0 0 60 17.82" xml:space="preserve">
<path fill="#FFFFFF" d="M60,17.767H0V-0.057h60V17.767z M1.602,16.165h56.795V1.545H1.602V16.165z"/>
<path fill="#FFFFFF" d="M8.321,9.397H6.716v3.66c0,0.45-0.338,0.662-0.676,0.662c-0.338,0-0.676-0.211-0.676-0.662V4.596
	c0-0.352,0.296-0.676,0.676-0.676h2.281c1.52,0,2.647,1.211,2.647,2.731C10.968,8.172,9.841,9.397,8.321,9.397z M8.321,5.258H6.716
	V8.06h1.605c0.788,0,1.295-0.619,1.295-1.408C9.616,5.878,9.11,5.258,8.321,5.258z"/>
<path fill="#FFFFFF" d="M15.557,9.397l1.605,3.365c0.056,0.113,0.07,0.211,0.07,0.296c0,0.38-0.282,0.662-0.718,0.662
	c-0.225,0-0.451-0.099-0.577-0.366l-1.816-3.829h-1.14v3.534c0,0.45-0.324,0.662-0.662,0.662c-0.352,0-0.69-0.211-0.69-0.662V4.596
	c0-0.352,0.324-0.676,0.676-0.676H14.6c1.52,0,2.745,1.225,2.745,2.745v0.127C17.345,8.003,16.627,9.031,15.557,9.397z
	 M15.993,6.666c0-0.788-0.577-1.408-1.352-1.408h-1.661v2.928h1.675c0.774,0,1.337-0.619,1.337-1.394V6.666z"/>
<path fill="#FFFFFF" d="M23.623,13.648h-4.28c-0.352,0-0.676-0.324-0.676-0.676V4.596c0-0.352,0.324-0.676,0.676-0.676h4.28
	c0.45,0,0.676,0.338,0.676,0.676c0,0.324-0.225,0.662-0.676,0.662h-3.604v2.717h2.45c0.45,0,0.676,0.324,0.676,0.662
	c0,0.338-0.225,0.676-0.676,0.676h-2.45v2.999h3.604c0.45,0,0.676,0.338,0.676,0.676C24.299,13.311,24.074,13.648,23.623,13.648z"/>
<path fill="#FFFFFF" d="M28.072,13.719h-0.127c-1.52,0-2.745-1.154-2.745-2.689V6.525c0-1.52,1.225-2.689,2.745-2.689h0.127
	c1.365,0,2.731,0.985,2.731,2.351v0.042c0,0.436-0.239,0.732-0.69,0.732c-0.38,0-0.563-0.225-0.662-0.577
	c-0.127-0.69-0.648-1.211-1.38-1.211h-0.127c-0.788,0-1.394,0.563-1.394,1.337v4.533c0,0.788,0.619,1.352,1.394,1.352h0.127
	c0.732,0,1.253-0.521,1.38-1.211c0.099-0.352,0.282-0.577,0.662-0.577c0.45,0,0.69,0.296,0.69,0.732v0.042
	C30.803,12.762,29.437,13.719,28.072,13.719z"/>
<path fill="#FFFFFF" d="M32.816,13.719c-0.338,0-0.676-0.211-0.676-0.662V4.512c0-0.45,0.338-0.676,0.676-0.676
	c0.338,0,0.676,0.225,0.676,0.676v8.545C33.491,13.508,33.154,13.719,32.816,13.719z"/>
<path fill="#FFFFFF" d="M37.87,13.719h-0.141c-1.506,0-2.745-1.154-2.745-2.689V6.525c0-1.52,1.239-2.689,2.759-2.689h0.127
	c1.52,0,2.745,1.168,2.745,2.689v4.505C40.615,12.564,39.39,13.719,37.87,13.719z M39.263,6.525c0-0.788-0.619-1.351-1.394-1.351
	h-0.141c-0.774,0-1.394,0.577-1.394,1.351v4.505c0,0.788,0.619,1.366,1.394,1.366h0.141c0.774,0,1.394-0.577,1.394-1.366V6.525z"/>
<path fill="#FFFFFF" d="M44.95,13.719H44.81c-1.506,0-2.745-1.211-2.745-2.731V4.512c0-0.45,0.338-0.676,0.676-0.676
	s0.676,0.225,0.676,0.676v6.476c0,0.746,0.634,1.394,1.408,1.394h0.127c0.746,0,1.394-0.648,1.394-1.394V4.512
	c0-0.45,0.338-0.676,0.676-0.676c0.338,0,0.676,0.225,0.676,0.676v6.476C47.696,12.508,46.471,13.719,44.95,13.719z"/>
<path fill="#FFFFFF" d="M51.623,13.719h-0.141c-1.478,0-2.745-1-2.745-2.731c0-0.451,0.338-0.676,0.676-0.676
	c0.338,0,0.676,0.225,0.676,0.676c0,0.901,0.591,1.408,1.394,1.408h0.141c0.831,0,1.45-0.451,1.45-1.281
	c0-1.971-4.251-1.985-4.251-4.533V6.328c0-1.52,1.394-2.492,2.675-2.492h0.127c1.352,0,2.661,0.718,2.661,2.154v0.084
	c0,0.38-0.268,0.634-0.648,0.634c-0.394,0-0.619-0.239-0.704-0.619c-0.169-0.76-0.563-0.915-1.309-0.915h-0.127
	c-0.619,0-1.323,0.394-1.323,1.084v0.282c0,1.351,4.251,1.661,4.251,4.575C54.425,12.705,53.2,13.719,51.623,13.719z"/>
</svg>
